Coordinates
version=1
nRows=12
nColumns=42
inDegrees=yes

Units are S.I. units (second, meters, Newtons, ...)
If the header above contains a line with 'inDegrees', this indicates whether rotational values are in degrees (yes) or radians (no).

endheader
time	pelvis_tilt	pelvis_list	pelvis_rotation	pelvis_tx	pelvis_ty	pelvis_tz	hip_flexion_r	hip_adduction_r	hip_rotation_r	knee_angle_r	knee_adduction_r	knee_angle_r_beta	ankle_angle_r	subtalar_angle_r	mtp_angle_r	hip_flexion_l	hip_adduction_l	hip_rotation_l	knee_angle_l	knee_adduction_l	knee_angle_l_beta	ankle_angle_l	subtalar_angle_l	mtp_angle_l	lumbar_extension	lumbar_bending	lumbar_rotation	arm_flex_r	arm_add_r	arm_rot_r	elbow_flex_r	pro_sup_r	wrist_flex_r	wrist_dev_r	arm_flex_l	arm_add_l	arm_rot_l	elbow_flex_l	pro_sup_l	wrist_flex_l	wrist_dev_l
      1.75000000	     10.20301150	      1.89265944	     -1.53698158	     -0.46295297	      0.90977444	      0.19818855	     19.33582686	     -3.41687333	     -1.11965541	     57.02002241	      1.61057175	      0.99518713	      6.96182020	     -7.32079351	     -7.56858998	     -5.45041290	      7.71186459	    -11.50191648	     21.08718898	     -2.39173192	      0.36804088	     21.82542943	     17.37958925	     -7.56858998	    -21.01415201	      0.37420748	     -5.50722782	      0.36150697	    -10.06344272	    -17.67280000	     29.52007443	     90.00000001	      0.00000000	      0.00000000	     -4.43003493	     -9.15715529	    -20.94024460	     39.84654029	     90.00000001	      0.00000000	      0.00000000
      1.76000000	      9.80457354	      1.92490401	     -1.26674710	     -0.45588633	      0.90884981	      0.19787367	     20.36309524	     -3.49183835	     -0.98046426	     54.37737871	      1.94385257	      0.94906430	      7.20611965	     -6.41451643	     -7.56738041	     -5.51375969	      7.90457563	    -11.30695872	     21.05298935	     -2.74976788	      0.36744398	     22.07938576	     17.36271689	     -7.56738041	    -20.70613608	      0.46524168	     -5.89976804	     -0.08106162	    -10.05673278	    -17.74273913	     29.78391731	     90.00000001	      0.00000000	      0.00000000	     -4.26431986	     -9.28932566	    -20.74927246	     39.97270315	     90.00000001	      0.00000000	      0.00000000
      1.77000000	     10.03445164	      1.71793907	     -0.92038231	     -0.44813912	      0.90911055	      0.19773340	     20.23767498	     -3.32920174	     -2.01004880	     51.03944317	      1.50466536	      0.89080633	      8.52464567	     -2.94337775	     -7.56335416	     -6.59722685	      7.60387355	    -11.23786709	     20.60233149	     -2.71804118	      0.35957852	     22.54703864	     18.21083964	     -7.56335416	    -21.05354473	      0.82169701	     -6.18888031	     -0.57415889	    -10.02248215	    -18.13128114	     30.19025956	     90.00000001	      0.00000000	      0.00000000	     -3.99713160	     -9.49296525	    -20.10032518	     39.92006784	     90.00000001	      0.00000000	      0.00000000
      1.78000000	      9.86036773	      1.66713354	     -0.70517429	     -0.44077237	      0.90840573	      0.19775535	     20.71017670	     -3.31303925	     -1.87921971	     47.97034798	      1.91274519	      0.83724052	      9.13539741	     -1.44020637	     -7.56119360	     -7.04758530	      7.53117630	    -11.16567380	     20.43500071	     -2.77780736	      0.35665805	     22.98448717	     18.44406667	     -7.56119360	    -20.97469376	      0.96686718	     -6.40262858	     -1.04949097	    -10.00179498	    -18.29696470	     30.46328104	     90.00000001	      0.00000000	      0.00000000	     -3.73351419	     -9.59529797	    -19.86622847	     39.90084890	     90.00000001	      0.00000000	      0.00000000
      1.79000000	      9.57063732	      1.69099277	     -0.49267901	     -0.43333286	      0.90731157	      0.19778142	     21.30843035	     -3.40653937	     -1.78650383	     45.00437752	      2.29577388	      0.78547457	      9.48789676	     -0.30160653	     -7.55988906	     -7.34152138	      7.61296007	    -11.05843919	     20.28779787	     -2.99079908	      0.35408887	     23.31391612	     18.64105885	     -7.55988906	    -20.74255703	      1.03254511	     -6.62332691	     -1.52822189	     -9.94863258	    -18.43916897	     30.67713984	     90.00000001	      0.00000000	      0.00000000	     -3.53899460	     -9.68646087	    -19.67739450	     39.93699182	     90.00000001	      0.00000000	      0.00000000
      1.80000000	      9.68190337	      1.59547030	     -0.22117083	     -0.42537234	      0.90688489	      0.19797390	     21.24085363	     -3.34418306	     -2.83856518	     41.83059311	      1.92366878	      0.73008158	     10.49847049	      2.95471407	     -7.55538503	     -8.24555258	      7.32439162	    -11.25427018	     19.96089288	     -2.89978697	      0.34838330	     23.79717631	     19.81222085	     -7.55538503	    -20.92355049	      1.20343334	     -6.77985519	     -1.99786073	     -9.85697525	    -18.96687449	     30.86341654	     90.00000001	      0.00000000	      0.00000000	     -3.28143022	     -9.80860073	    -19.39460417	     39.89684508	     90.00000001	      0.00000000	      0.00000000
      1.81000000	      9.58932321	      1.55875536	     -0.00548253	     -0.41764965	      0.90597268	      0.19824462	     21.43185621	     -3.39834623	     -3.21217245	     38.88006766	      2.14888807	      0.67858519	     10.93941756	      4.57535416	     -7.55169991	     -8.83649711	      7.16533218	    -11.22369646	     19.76183621	     -2.85341005	      0.34490911	     24.19192502	     20.28494142	     -7.55169991	    -20.89195933	      1.30305638	     -6.91312919	     -2.44030539	     -9.76701359	    -19.28621108	     30.98967674	     90.00000001	      0.00000000	      0.00000000	     -3.02402095	     -9.87743963	    -19.27387275	     39.83727950	     90.00000001	      0.00000000	      0.00000000
      1.82000000	      9.40131027	      1.58409260	      0.17291939	     -0.41004960	      0.90478137	      0.19856458	     21.72475730	     -3.60496345	     -3.27301247	     36.14770957	      2.74219682	      0.63089655	     11.23176949	      5.48432505	     -7.55049031	     -9.24460652	      7.08804659	    -11.07660695	     19.69906108	     -2.79324081	      0.34381348	     24.62056917	     20.40184404	     -7.55049031	    -20.76965728	      1.31993824	     -6.99148278	     -2.86622778	     -9.68991503	    -19.45704114	     31.03167450	     90.00000001	      0.00000000	      0.00000000	     -2.72749612	     -9.92211516	    -19.18994032	     39.74259187	     90.00000001	      0.00000000	      0.00000000
      1.83000000	      9.46444130	      1.49043996	      0.42588186	     -0.40198434	      0.90398719	      0.19899580	     21.58929182	     -3.65449366	     -4.45923548	     33.48073223	      2.69903054	      0.58434901	     11.64423758	      7.64839142	     -7.54705653	    -10.02763354	      6.76168743	    -11.04384530	     19.51664074	     -2.62779688	      0.34062964	     25.02675087	     21.11725803	     -7.54705653	    -20.88308688	      1.46653932	     -7.07039584	     -3.23699613	     -9.52479081	    -20.08168162	     31.00676085	     90.00000001	      0.00000000	      0.00000000	     -2.45384456	     -9.95581999	    -19.19094172	     39.64484035	     90.00000001	      0.00000000	      0.00000000
      1.84000000	      9.42699066	      1.43357936	      0.63415238	     -0.39408741	      0.90291583	      0.19942256	     21.57330602	     -3.79228427	     -5.07800407	     31.13704008	      3.12241492	      0.54344387	     11.80233457	      8.56947360	     -7.54548454	    -10.62153578	      6.53023432	    -10.84882308	     19.46513969	     -2.49266413	      0.33973078	     25.42432861	     21.27314480	     -7.54548454	    -20.89119000	      1.58357758	     -7.12301385	     -3.59459830	     -9.43672978	    -20.36796309	     30.91386520	     90.00000001	      0.00000000	      0.00000000	     -2.14175981	     -9.94520283	    -19.18715075	     39.48600194	     90.00000001	      0.00000000	      0.00000000
      1.85000000	      9.25831060	      1.49699779	      0.86148617	     -0.38621691	      0.90149437	      0.19975162	     21.75156953	     -4.18309540	     -5.76480299	     29.26074615	      3.72110194	      0.51069636	     11.89516628	      9.14262207	     -7.54468474	    -10.99556339	      6.54820821	    -10.56328216	     19.49801508	     -2.59278913	      0.34030456	     25.84589943	     21.39327563	     -7.54468474	    -20.75323947	      1.56517256	     -7.21709691	     -3.94046940	     -9.33267735	    -20.56392200	     30.76491049	     90.00000001	      0.00000000	      0.00000000	     -1.87923834	     -9.94993055	    -19.18532707	     39.36616790	     90.00000001	      0.00000000	      0.00000000
      1.86000000	      9.48605691	      1.33796138	      1.12902364	     -0.37780020	      0.90078492	      0.20029519	     21.28243250	     -4.23710246	     -7.37274396	     27.48626234	      3.84561659	      0.47972578	     12.04703965	     10.86005042	     -7.54147805	    -11.93855210	      6.08306827	    -10.47846034	     19.42046284	     -2.35193902	      0.33895102	     26.24323692	     21.91865776	     -7.54147805	    -21.00190031	      1.79472690	     -7.21971283	     -4.16961400	     -9.14159077	    -21.45287387	     30.47689831	     90.00000001	      0.00000000	      0.00000000	     -1.55896604	     -9.87132999	    -19.36106677	     39.20245764	     90.00000001	      0.00000000	      0.00000000
